<?xml version="1.0" standalone="no"?>
<!DOCTYPE svg PUBLIC "-//W3C//DTD SVG 20010904//EN"
 "http://www.w3.org/TR/2001/REC-SVG-20010904/DTD/svg10.dtd">
<svg version="1.0" xmlns="http://www.w3.org/2000/svg"
 width="390.000000pt" height="152.000000pt" viewBox="0 0 390.000000 152.000000"
 preserveAspectRatio="xMidYMid meet">

<g transform="translate(0.000000,152.000000) scale(0.100000,-0.100000)"
fill="#000000" stroke="none">
<path d="M0 760 l0 -760 1950 0 1950 0 0 760 0 760 -970 0 -970 0 0 -370 0
-370 23 -4 c12 -3 40 -8 62 -11 59 -10 149 -61 196 -112 22 -24 55 -74 72
-111 29 -60 32 -76 32 -157 -1 -71 -5 -100 -22 -138 l-22 -47 42 -27 c116 -74
299 -129 460 -140 53 -3 97 -10 97 -15 0 -4 -197 -8 -437 -7 -378 0 -432 2
-396 14 65 20 127 60 172 111 23 26 41 50 41 54 0 3 -27 28 -60 56 -121 98
-222 252 -251 379 l-12 56 -22 -73 c-36 -127 -78 -192 -197 -311 -122 -121
-120 -115 -45 -184 50 -47 108 -79 164 -92 24 -6 -123 -9 -404 -10 -420 -1
-557 8 -349 23 157 11 371 78 483 151 l22 15 -20 44 c-75 170 7 393 178 483
44 24 144 53 180 53 2 0 3 167 3 370 l0 370 -975 0 -975 0 0 -760z m1907 78
c-2 -18 -4 -6 -4 27 0 33 2 48 4 33 2 -15 2 -42 0 -60z m103 32 c0 -27 -4 -50
-10 -50 -5 0 -10 23 -10 50 0 28 5 50 10 50 6 0 10 -22 10 -50z"/>
<path d="M1887 760 c-107 -18 -206 -88 -263 -185 -29 -51 -54 -138 -54 -196 0
-43 37 -169 49 -169 16 0 117 87 163 139 59 69 105 146 133 228 25 73 43 194
29 192 -5 -1 -31 -5 -57 -9z"/>
<path d="M1960 742 c1 -113 77 -293 168 -392 54 -60 146 -140 161 -140 17 0
46 108 46 175 -1 195 -139 350 -337 378 -36 5 -38 4 -38 -21z"/>
<path d="M1555 154 c-77 -44 -208 -91 -315 -114 l-85 -18 318 -1 c174 -1 317
1 317 4 0 2 -17 13 -37 24 -37 19 -96 75 -124 118 l-15 21 -59 -34z"/>
<path d="M2290 181 c0 -17 -86 -105 -129 -133 l-45 -28 315 1 314 0 -100 24
c-116 27 -182 51 -282 105 -40 22 -73 35 -73 31z"/>
</g>
</svg>
