<?xml version="1.0" standalone="no"?>
<!DOCTYPE svg PUBLIC "-//W3C//DTD SVG 20010904//EN"
 "http://www.w3.org/TR/2001/REC-SVG-20010904/DTD/svg10.dtd">
<svg version="1.0" xmlns="http://www.w3.org/2000/svg"
 width="380.000000pt" height="318.000000pt" viewBox="0 0 380.000000 318.000000"
 preserveAspectRatio="xMidYMid meet">

<g transform="translate(0.000000,318.000000) scale(0.100000,-0.100000)"
fill="#000000" stroke="none">
<path d="M0 1590 l0 -1590 1900 0 c1682 0 1900 2 1900 15 0 13 -103 15 -867
16 l-868 0 74 20 c157 41 303 138 398 264 29 39 53 75 53 81 0 6 -26 28 -57
50 -95 64 -312 287 -381 392 -102 153 -172 316 -205 477 -16 76 -17 75 -42
-35 -22 -97 -85 -256 -137 -345 -110 -188 -299 -392 -470 -507 l-38 -25 32
-49 c44 -66 140 -161 212 -209 71 -46 184 -91 258 -104 33 -5 -289 -9 -844
-10 -792 -1 -898 1 -898 14 0 8 3 15 8 15 76 2 318 24 386 36 259 44 504 130
712 250 55 31 100 57 102 59 1 1 -11 32 -28 69 -45 99 -62 185 -61 311 1 304
168 573 436 706 86 42 215 79 276 79 76 0 69 -73 69 771 0 499 3 759 10 759 7
0 10 -260 10 -759 0 -844 -7 -771 69 -771 114 0 310 -81 423 -174 189 -157
288 -368 288 -615 0 -141 -17 -212 -86 -367 -3 -6 26 -29 63 -51 295 -175 640
-279 996 -300 l107 -6 0 1561 0 1562 -1900 0 -1900 0 0 -1590z m1840 170 c0
-67 -4 -110 -10 -110 -6 0 -10 43 -10 110 0 67 4 110 10 110 6 0 10 -43 10
-110z m190 0 c0 -67 -4 -110 -10 -110 -6 0 -10 43 -10 110 0 67 4 110 10 110
6 0 10 -43 10 -110z"/>
<path d="M1742 1531 c-153 -38 -304 -134 -407 -258 -184 -222 -227 -534 -111
-797 l26 -58 37 28 c78 57 190 154 245 211 143 147 274 365 333 553 26 84 55
245 55 308 l0 32 -52 -1 c-29 0 -86 -9 -126 -18z"/>
<path d="M1944 1483 c24 -241 91 -428 222 -626 77 -114 219 -267 335 -359 115
-90 106 -88 135 -21 66 149 83 335 44 489 -40 160 -143 320 -268 420 -114 90
-306 164 -428 164 l-46 0 6 -67z"/>
<path d="M1200 364 c-57 -41 -307 -160 -415 -197 -112 -39 -285 -81 -420 -101
-82 -13 -28 -14 580 -15 l670 -1 -63 34 c-110 60 -213 152 -279 251 -20 30
-36 55 -37 55 -1 -1 -17 -12 -36 -26z"/>
<path d="M2591 344 c-56 -94 -178 -207 -285 -264 l-58 -30 648 1 c562 1 639 3
573 14 -284 48 -566 148 -773 273 -37 23 -72 42 -76 42 -4 0 -18 -16 -29 -36z"/>
</g>
</svg>
