<?xml version="1.0" standalone="no"?>
<!DOCTYPE svg PUBLIC "-//W3C//DTD SVG 20010904//EN"
 "http://www.w3.org/TR/2001/REC-SVG-20010904/DTD/svg10.dtd">
<svg version="1.0" xmlns="http://www.w3.org/2000/svg"
 width="256.000000pt" height="214.000000pt" viewBox="0 0 256.000000 214.000000"
 preserveAspectRatio="xMidYMid meet">

<g transform="translate(0.000000,214.000000) scale(0.100000,-0.100000)"
fill="#000000" stroke="none">
<path d="M0 1070 l0 -1070 1280 0 c847 0 1280 3 1280 10 0 7 -201 10 -582 11
-502 1 -576 3 -535 14 108 30 212 101 274 187 l32 45 -47 35 c-189 141 -330
341 -382 540 -10 40 -20 66 -23 58 -3 -8 -17 -54 -32 -102 -60 -194 -171 -339
-393 -515 l-22 -18 45 -57 c43 -55 135 -127 192 -149 15 -6 51 -17 78 -24 42
-11 -44 -13 -552 -14 -365 -1 -603 3 -603 8 0 10 37 15 180 26 75 6 94 10 225
41 98 23 235 77 332 132 l81 46 -15 29 c-69 134 -65 313 9 464 77 157 279 293
435 293 l33 0 0 510 c0 333 3 510 10 510 7 0 10 -177 10 -510 l0 -510 33 0
c105 0 243 -66 339 -162 130 -132 184 -313 143 -486 -8 -34 -24 -80 -34 -101
l-20 -38 62 -35 c123 -71 254 -124 380 -153 83 -19 259 -45 310 -45 l37 0 0
1050 0 1050 -1280 0 -1280 0 0 -1070z m1240 115 c0 -43 -4 -75 -10 -75 -11 0
-14 133 -3 143 12 13 13 7 13 -68z m130 0 c0 -43 -4 -75 -10 -75 -6 0 -10 32
-10 75 0 43 4 75 10 75 6 0 10 -32 10 -75z"/>
<path d="M1161 1024 c-281 -75 -448 -388 -352 -658 28 -81 33 -84 78 -51 61
46 172 155 218 216 107 138 185 340 185 482 0 25 -3 27 -37 26 -21 0 -62 -7
-92 -15z"/>
<path d="M1315 974 c21 -197 114 -389 261 -538 88 -88 172 -152 185 -139 5 5
19 36 31 69 31 84 31 243 -1 329 -58 160 -188 281 -350 329 -30 9 -72 16 -94
16 l-39 0 7 -66z"/>
<path d="M774 222 c-116 -68 -281 -131 -432 -162 l-87 -19 410 0 410 -1 -40
21 c-59 32 -111 78 -159 140 l-43 56 -59 -35z"/>
<path d="M1731 209 c-35 -51 -100 -110 -161 -148 l-35 -21 395 1 395 0 -100
24 c-146 33 -328 107 -430 174 l-30 20 -34 -50z"/>
</g>
</svg>
